<?xml version="1.0" encoding="UTF-8"?>
<svg id="Layer_2" xmlns="http://www.w3.org/2000/svg" viewBox="0 0 126.14 126.14">
  <defs>
    <style>
      .cls-1 {
        fill: #a2b0b6;
      }

      .cls-2 {
        fill: #fff;
      }

      .cls-2, .cls-3 {
        stroke: #a2b0b6;
        stroke-linejoin: round;
      }

      .cls-3 {
        fill: none;
      }
    </style>
  </defs>
  <g id="Layer_1-2" data-name="Layer_1">
    <g>
      <circle class="cls-1" cx="63.07" cy="63.07" r="63.07"/>
      <g>
        <path class="cls-2" d="M106.17,84.19l-6.09-35.67-69.91.03h-3.92l-6.27,36.3,39.71-.31c-.02.1-.04.2-.04.31,0,1.26,1.82,2.29,4.07,2.29s4.07-1.02,4.07-2.29c0-.13-.02-.25-.06-.37l38.45-.3Z"/>
        <path class="cls-3" d="M63.21,82.63v-38.91s22.19-5.63,32.02-1.41l6.66,40.32s-20.21-11.13-38.68,0Z"/>
        <path class="cls-2" d="M63.21,82.63v-38.91s22.19-5.63,32.02-1.41l6.66,40.32s-20.21-11.13-38.68,0Z"/>
        <path class="cls-2" d="M63.21,82.63v-38.91s18.84-10.53,27.19-8.49l5.65,38.84s-17.16-6.66-32.84,8.56Z"/>
        <path class="cls-2" d="M63.21,82.63v-38.91s15.01-15.04,21.66-14.99l4.5,37.49s-13.67-2.56-26.16,16.41Z"/>
        <path class="cls-2" d="M63.21,82.63v-38.91s9.28-20.55,13.39-22.95l2.78,35.84s-8.45,2.46-16.17,26.02Z"/>
        <path class="cls-2" d="M63.21,82.63v-38.91s-22.19-5.63-32.02-1.41l-6.66,40.32s20.21-11.13,38.68,0Z"/>
      </g>
    </g>
  </g>
</svg>