<?xml version="1.0" encoding="UTF-8"?>
<svg id="Layer_2" data-name="Layer 2" xmlns="http://www.w3.org/2000/svg" width="43.79" height="43.79" viewBox="0 0 43.79 43.79">
  <defs>
    <style>
      .cls-1 {
        fill: #a2b0b6;
      }

      .cls-1, .cls-2 {
        stroke-width: 0px;
      }

      .cls-3 {
        fill: none;
      }

      .cls-3, .cls-4 {
        stroke: #a2b0b6;
        stroke-miterlimit: 10;
      }

      .cls-2, .cls-4 {
        fill: #fff;
      }
    </style>
  </defs>
  <g id="Layer_1-2" data-name="Layer 1">
    <g>
      <circle class="cls-1" cx="21.9" cy="21.9" r="21.9"/>
      <rect class="cls-2" x="9.05" y="12.38" width="26.36" height="19.35" rx="2.57" ry="2.57"/>
      <path class="cls-3" d="m21.25,20.46l-10.9,9.16c-1.09.92-.44,2.7.98,2.7h21.8c1.42,0,2.07-1.78.98-2.7l-10.9-9.16c-.57-.48-1.4-.48-1.96,0Z"/>
      <path class="cls-4" d="m21.47,22.37l-11.12-7.56c-1.24-.85-.64-2.79.86-2.79h22.24c1.5,0,2.1,1.94.86,2.79l-11.12,7.56c-.52.35-1.2.35-1.72,0Z"/>
    </g>
  </g>
</svg>