<?xml version="1.0" encoding="UTF-8"?>
<svg id="Layer_2" xmlns="http://www.w3.org/2000/svg" viewBox="0 0 126.14 126.14">
  <defs>
    <style>
      .cls-1 {
        stroke-miterlimit: 10;
      }

      .cls-1, .cls-2 {
        fill: #fff;
        stroke: #a2b0b6;
      }

      .cls-3 {
        fill: #a2b0b6;
      }

      .cls-2 {
        stroke-linejoin: round;
      }
    </style>
  </defs>
  <g id="Layer_1-2" data-name="Layer_1">
    <circle class="cls-3" cx="63.07" cy="63.07" r="63.07"/>
    <g>
      <path class="cls-1" d="M28.06,97.12l-3.07-2.95c-.18-.17-.17-.46,0-.66l41.02-45.69c.19-.22.52-.24.7-.06l7.15,7.15c.18.18.16.5-.05.7l-45.11,41.48c-.2.18-.48.19-.66.03Z"/>
      <path class="cls-1" d="M87.55,38.3c.08-.1.11-.22.08-.33-.15-.53-.49-1.42-1.29-2.21-.75-.74-1.58-1.07-2.09-1.22-.11-.03-.22,0-.32.07-5.86,4.32-11.72,8.65-17.57,12.97-.19.14-.22.4-.07.55l7.28,7.28c.15.15.4.12.54-.06l13.46-17.04Z"/>
      <path class="cls-2" d="M89.47,39.59c-1.05-.19-1.24-1.6-2.06-2.87-1.66-2.58-4.23-1.99-4.51-3.71-.24-1.45,1.38-3.26,1.91-3.8.08-.08.17-.15.26-.23.64-.41,1.26-.77,1.87-1.09,0-.01.02-.01.03-.02,1.7-.92,3.23-1.53,4.43-1.95,3.33-1.17,6.22-1.6,8.26-1.8.97-.09,1.95-.19,2.92-.29-1.71,1.29-3.86,3.27-5.62,6.16-.58.95-1.03,1.87-1.4,2.73-.41,1.23-.82,2.47-1.22,3.7-.17.39-.82,1.77-2.18,2.54-.63.36-1.28.51-1.34.52-.15.03-.86.2-1.34.11Z"/>
    </g>
  </g>
</svg>