<?xml version="1.0" encoding="UTF-8"?>
<svg id="Layer_2" xmlns="http://www.w3.org/2000/svg" viewBox="0 0 126.14 126.14">
  <defs>
    <style>
      .cls-1 {
        fill: #fff;
      }

      .cls-2 {
        fill: #4fa19e;
      }
    </style>
  </defs>
  <g id="Layer_1-2" data-name="Layer_1">
    <circle class="cls-2" cx="63.07" cy="63.07" r="63.07"/>
    <path class="cls-1" d="M44.89,29.08l7.09,21.17c-1.76,1.83-4.4,3.14-7.11,3.25-.09,0-.18.03-.27.04,5.45,16.48,20.44,28.13,37.35,29.97-.24-2.84.37-4.58,1.31-7.04.02-.05.06-.08.11-.08l21.03-1.07c1.18,1.38.91,1.01,1.71,2.94.47,1.13.9,3.19.75,5.44-.45,6.74-3.34,9.68-9.91,11.04-.11.02-1.76.22-1.87.24-30.33,5.39-58.19-15.26-63.58-45.59-.24-1.37-.43-2.73-.57-4.09-.25-2.42-.34-4.82-.28-7.2,1.19-4.55,4.92-8.23,9.86-9.1,1.07-.19,2.13-.23,3.17-.15.27.02,1.12.34,1.38.38"/>
  </g>
</svg>