<?xml version="1.0" encoding="UTF-8"?>
<svg id="Layer_2" data-name="Layer 2" xmlns="http://www.w3.org/2000/svg" width="44.88" height="44.88" viewBox="0 0 44.88 44.88">
  <defs>
    <style>
      .cls-1 {
        fill: #a2b0b6;
      }

      .cls-1, .cls-2 {
        stroke-width: 0px;
      }

      .cls-2 {
        fill: #fff;
      }
    </style>
  </defs>
  <g id="Layer_1-2" data-name="Layer 1">
    <g>
      <circle class="cls-1" cx="22.44" cy="22.44" r="22.44"/>
      <path class="cls-2" d="m15.97,10.35l2.52,7.53c-.63.65-1.57,1.12-2.53,1.16-.03,0-.06.01-.1.02,1.94,5.86,7.27,10.01,13.29,10.66-.08-1.01.13-1.63.47-2.5,0-.02.02-.03.04-.03l7.48-.38c.42.49.32.36.61,1.05.17.4.32,1.14.27,1.93-.16,2.4-1.19,3.44-3.53,3.93-.04,0-.62.08-.67.09-10.79,1.92-20.7-5.43-22.62-16.22-.09-.49-.15-.97-.2-1.46-.09-.86-.12-1.72-.1-2.56.42-1.62,1.75-2.93,3.51-3.24.38-.07.76-.08,1.13-.05.09,0,.4.12.49.13"/>
    </g>
  </g>
</svg>